<svg xmlns="http://www.w3.org/2000/svg" xmlns:xlink="http://www.w3.org/1999/xlink" width="1323.2" height="560"><g transform="translate(0 0)"><path d="M927.76 245.9h248.7v71.3h-248.7z" fill="none"/><use xlink:href="#a" transform="matrix(1,0,0,1,927.7647058823534,245.89347336834206) translate(86.58333333333333 30.000000000000004)"/><use xlink:href="#b" transform="matrix(1,0,0,1,927.7647058823534,245.89347336834206) translate(34.21666666666667 69.2)"/><g filter="url(#c)"><path d="M251.47 281.54c0 59.07-47.34 106.95-105.74 106.95C87.33 388.5 40 340.6 40 281.53c0-59.06 47.34-106.94 105.73-106.94 58.4 0 105.74 47.88 105.74 106.94z" fill="#5f4d93"/><use xlink:href="#d" transform="matrix(1,0,0,1,45,179.59564891222803) translate(10.055555555555543 108.93333333333334)"/><use xlink:href="#e" transform="matrix(1,0,0,1,45,179.59564891222803) translate(114.45555555555555 108.93333333333334)"/></g><g filter="url(#f)"><path d="M294.64 174.33H506.1v213.9H294.65z" fill="#5f4d93"/><use xlink:href="#g" transform="matrix(1,0,0,1,299.6433566433567,179.32558139534882) translate(34.855555555555554 95.86666666666667)"/><use xlink:href="#h" transform="matrix(1,0,0,1,299.6433566433567,179.32558139534882) translate(125.58888888888889 95.86666666666667)"/><use xlink:href="#i" transform="matrix(1,0,0,1,299.6433566433567,179.32558139534882) translate(11.155555555555566 122)"/><use xlink:href="#j" transform="matrix(1,0,0,1,299.6433566433567,179.32558139534882) translate(95.71111111111111 122)"/></g><g filter="url(#f)"><path d="M549.3 174.6h211.46v213.9H549.3z" fill="#5f4d93"/><use xlink:href="#k" transform="matrix(1,0,0,1,554.2867132867133,179.595648912228) translate(42.66666666666666 82.8)"/><use xlink:href="#l" transform="matrix(1,0,0,1,554.2867132867133,179.595648912228) translate(128.35555555555555 82.8)"/><use xlink:href="#m" transform="matrix(1,0,0,1,554.2867132867133,179.595648912228) translate(39.46666666666666 108.93333333333334)"/><use xlink:href="#n" transform="matrix(1,0,0,1,554.2867132867133,179.595648912228) translate(143.8 108.93333333333334)"/><use xlink:href="#o" transform="matrix(1,0,0,1,554.2867132867133,179.595648912228) translate(2.2777777777777715 135.06666666666666)"/><use xlink:href="#p" transform="matrix(1,0,0,1,554.2867132867133,179.595648912228) translate(104.12222222222222 135.06666666666666)"/></g><g filter="url(#q)"><path d="M977.6 32h148.22v142.6H977.6z" fill="#5f4d93"/><use xlink:href="#r" transform="matrix(1,0,0,1,982.5882352941177,37) translate(36.25555555555555 47.3)"/><use xlink:href="#s" transform="matrix(1,0,0,1,982.5882352941177,37) translate(30.188888888888897 73.43333333333334)"/><use xlink:href="#t" transform="matrix(1,0,0,1,982.5882352941177,37) translate(45.71111111111111 99.56666666666666)"/></g><g filter="url(#q)"><path d="M1151.76 210.24H1300v142.6h-148.24z" fill="#5f4d93"/><use xlink:href="#r" transform="matrix(1,0,0,1,1156.764705882353,215.24456114028504) translate(36.25555555555555 47.3)"/><use xlink:href="#u" transform="matrix(1,0,0,1,1156.764705882353,215.24456114028504) translate(31.422222222222224 73.43333333333334)"/><use xlink:href="#e" transform="matrix(1,0,0,1,1156.764705882353,215.24456114028504) translate(30.755555555555553 99.56666666666666)"/></g><g filter="url(#q)"><path d="M977.4 388.5h148.24v142.58H977.4z" fill="#5f4d93"/><use xlink:href="#v" transform="matrix(1,0,0,1,982.406828465652,393.48912228057014) translate(30.81111111111111 60.36666666666667)"/><use xlink:href="#w" transform="matrix(1,0,0,1,982.406828465652,393.48912228057014) translate(36 86.5)"/></g><g filter="url(#q)"><path d="M805.88 210.24h148.24v142.6H805.88z" fill="#5f4d93"/><use xlink:href="#x" transform="matrix(1,0,0,1,810.8823529411765,215.24456114028504) translate(0.19999999999998863 60.36666666666667)"/><use xlink:href="#y" transform="matrix(1,0,0,1,810.8823529411765,215.24456114028504) translate(94.73333333333333 60.36666666666667)"/><use xlink:href="#z" transform="matrix(1,0,0,1,810.8823529411765,215.24456114028504) translate(35.4 86.5)"/></g><path d="M760.76 281.54h45.12" stroke="#5f4d93" stroke-width="2" fill="none"/><path d="M805.88 281.54l-14.26 4.64v-9.27z" fill="#5f4d93"/><path d="M805.88 280.5v2.1l-15.26 4.95v-12.02zm-13.26 4.3l10.03-3.26-10.03-3.26z" fill="#5f4d93"/><path d="M880 210.24l.14-5.88.4-5.8.67-5.7.93-5.58 1.17-5.45 1.4-5.3 1.6-5.17 1.84-5 2.02-4.82 2.2-4.64 2.4-4.46 2.53-4.26 2.68-4.06 2.83-3.87 2.96-3.66 3.06-3.48 3.17-3.26 3.27-3.06 3.36-2.87 3.46-2.68 3.53-2.5 3.6-2.28 3.7-2.12 3.8-1.92 3.85-1.75 3.94-1.57 4.02-1.38 4.1-1.2 4.22-1.02 4.3-.84 4.4-.64 4.54-.44 4.64-.24 2.85-.04" fill="none"/><path d="M881 210.24c0 .56-.45 1-1 1s-1-.44-1-1c0-.55.45-1 1-1s1 .45 1 1zm.3-8.06c0 .55-.46 1-1 1-.56 0-1-.45-1-1s.44-1 1-1c.54 0 1 .45 1 1zm.76-8.03c0 .55-.45 1-1 1s-1-.45-1-1c0-.56.45-1 1-1s1 .44 1 1zm1.3-7.97c0 .56-.44 1-1 1-.54 0-1-.44-1-1 0-.55.46-1 1-1 .56 0 1 .45 1 1zm1.86-7.85c0 .55-.45 1-1 1s-1-.45-1-1 .45-1 1-1 1 .45 1 1zm2.36-7.7c0 .54-.44 1-1 1-.55 0-1-.46-1-1 0-.57.45-1 1-1 .56 0 1 .43 1 1zm2.93-7.53c0 .55-.44 1-1 1-.54 0-1-.45-1-1 0-.56.46-1 1-1 .56 0 1 .44 1 1zm3.46-7.3c0 .55-.45 1-1 1-.56 0-1-.45-1-1s.44-1 1-1c.55 0 1 .45 1 1zm3.98-7.02c0 .55-.45 1-1 1-.56 0-1-.45-1-1s.44-1 1-1c.55 0 1 .45 1 1zm4.52-6.68c0 .55-.45 1-1 1-.56 0-1-.45-1-1s.44-1 1-1c.55 0 1 .45 1 1zm5-6.32c0 .55-.44 1-1 1-.54 0-1-.45-1-1s.46-1 1-1c.56 0 1 .45 1 1zm5.52-5.9c0 .55-.45 1-1 1-.56 0-1-.45-1-1s.44-1 1-1c.55 0 1 .45 1 1zm6-5.4c0 .56-.45 1-1 1s-1-.44-1-1c0-.55.45-1 1-1s1 .45 1 1zm6.43-4.86c0 .55-.44 1-1 1-.54 0-1-.45-1-1s.46-1 1-1c.56 0 1 .45 1 1zm6.84-4.3c0 .56-.45 1-1 1s-1-.44-1-1c0-.55.45-1 1-1s1 .45 1 1zm7.2-3.67c0 .56-.46 1-1 1-.57 0-1-.44-1-1 0-.55.43-1 1-1 .54 0 1 .45 1 1zm7.47-3.02c0 .56-.44 1-1 1-.55 0-1-.44-1-1 0-.55.45-1 1-1 .56 0 1 .45 1 1zm7.72-2.35c0 .56-.44 1-1 1-.55 0-1-.44-1-1 0-.55.45-1 1-1 .56 0 1 .45 1 1zm7.9-1.67c0 .56-.45 1-1 1-.56 0-1-.44-1-1 0-.54.44-1 1-1 .55 0 1 .46 1 1zm8-.97c0 .55-.44 1-1 1-.55 0-1-.45-1-1s.45-1 1-1c.56 0 1 .45 1 1zm8.07-.33c0 .55-.46 1-1 1-.56 0-1-.45-1-1s.44-1 1-1c.54 0 1 .45 1 1z" fill="#5f4d93"/><path d="M880.03 210.24H879v-.06zM977.6 103.3L963.7 109l-.7-9.23z" fill="#5f4d93"/><path d="M977.6 102.27v2.1l-14.77 6.1-.92-12zm-13 5.3l9.76-4.02-10.25-2.48z" fill="#5f4d93"/><path d="M1125.83 103.3l4.9.1 4.8.35 4.65.55 4.56.75 4.45.95 4.34 1.14 4.26 1.34 4.16 1.52 4.08 1.7 3.98 1.9 3.9 2.1 3.8 2.26 3.72 2.46 3.62 2.64 3.52 2.83 3.4 3.02 3.3 3.2 3.2 3.4 3.06 3.6 2.92 3.78 2.8 3.96 2.62 4.14 2.46 4.32 2.3 4.5 2.1 4.65 1.92 4.82 1.7 4.96 1.5 5.1 1.3 5.26 1.03 5.38.8 5.5.54 5.6.3 5.7.04 3.44" fill="none"/><path d="M1126.83 103.3c0 .55-.45 1-1 1-.56 0-1-.45-1-1s.44-1 1-1c.55 0 1 .45 1 1zm8.15.34c0 .55-.45 1-1 1s-1-.45-1-1 .45-1 1-1 1 .45 1 1zm8.1.97c0 .56-.44 1-1 1-.55 0-1-.44-1-1 0-.54.45-1 1-1 .56 0 1 .46 1 1zm8 1.63c0 .55-.45 1-1 1s-1-.45-1-1 .45-1 1-1 1 .45 1 1zm7.84 2.3c0 .54-.45 1-1 1-.56 0-1-.46-1-1 0-.56.44-1 1-1 .55 0 1 .44 1 1zm7.6 2.96c0 .54-.45 1-1 1s-1-.46-1-1c0-.56.45-1 1-1s1 .44 1 1zm7.3 3.6c0 .56-.43 1-1 1-.54 0-1-.44-1-1 0-.54.46-1 1-1 .57 0 1 .46 1 1zm7 4.24c0 .55-.46 1-1 1-.56 0-1-.45-1-1s.44-1 1-1c.54 0 1 .45 1 1zm6.6 4.8c0 .56-.46 1-1 1-.57 0-1-.44-1-1 0-.55.43-1 1-1 .54 0 1 .45 1 1zm6.16 5.35c0 .54-.45 1-1 1s-1-.46-1-1c0-.56.45-1 1-1s1 .44 1 1zm5.7 5.82c0 .56-.44 1-1 1-.55 0-1-.44-1-1 0-.55.45-1 1-1 .56 0 1 .45 1 1zm5.2 6.3c0 .55-.45 1-1 1-.56 0-1-.45-1-1s.44-1 1-1c.55 0 1 .45 1 1zm4.68 6.68c0 .56-.45 1-1 1s-1-.44-1-1c0-.55.45-1 1-1s1 .45 1 1zm4.18 7.02c0 .55-.45 1-1 1s-1-.45-1-1c0-.56.45-1 1-1s1 .44 1 1zm3.58 7.33c0 .55-.45 1-1 1s-1-.45-1-1 .45-1 1-1 1 .45 1 1zm3.06 7.57c0 .55-.45 1-1 1s-1-.45-1-1c0-.56.45-1 1-1s1 .44 1 1zm2.5 7.77c0 .54-.46 1-1 1-.56 0-1-.46-1-1 0-.56.44-1 1-1 .54 0 1 .44 1 1zm1.92 7.92c0 .55-.45 1-1 1s-1-.45-1-1 .45-1 1-1 1 .45 1 1zm1.37 8.05c0 .55-.45 1-1 1s-1-.45-1-1c0-.56.45-1 1-1s1 .44 1 1zm.82 8.12c0 .54-.45 1-1 1-.56 0-1-.46-1-1 0-.57.44-1 1-1 .55 0 1 .43 1 1z" fill="#5f4d93"/><path d="M1125.9 102.3l-.08 1.02v-1.02zM1225.88 210.24l-5.5-13.95 9.25-.58z" fill="#5f4d93"/><path d="M1226.92 210.24h-2.1l-5.88-14.86 12-.74zm-5.1-13.04l3.86 9.8 2.64-10.2z" fill="#5f4d93"/><path d="M1225.88 352.84l-.13 5.75-.4 5.64-.65 5.55-.9 5.43-1.13 5.3-1.37 5.2-1.58 5.05-1.8 4.9-2 4.75-2.17 4.6-2.36 4.4-2.54 4.26-2.7 4.06-2.84 3.9-2.98 3.7-3.12 3.5-3.23 3.34-3.37 3.14-3.46 2.96-3.57 2.76-3.66 2.57-3.76 2.4-3.86 2.2-3.94 2-4.03 1.83-4.13 1.64-4.2 1.45-4.32 1.27-4.4 1.07-4.5.86-4.62.67-4.73.47-4.85.25-2.96.04" fill="none"/><path d="M1226.88 352.84c0 .55-.45 1-1 1s-1-.45-1-1 .45-1 1-1 1 .45 1 1zm-.3 8.17c0 .56-.45 1-1 1s-1-.44-1-1c0-.55.45-1 1-1s1 .45 1 1zm-.8 8.14c0 .55-.45 1-1 1-.56 0-1-.45-1-1 0-.56.44-1 1-1 .55 0 1 .44 1 1zm-1.4 8.04c0 .56-.44 1-1 1-.55 0-1-.44-1-1 0-.55.45-1 1-1 .56 0 1 .45 1 1zm-1.92 7.94c0 .56-.44 1-1 1-.55 0-1-.44-1-1 0-.55.45-1 1-1 .56 0 1 .45 1 1zm-2.5 7.78c0 .55-.46 1-1 1-.57 0-1-.45-1-1 0-.56.43-1 1-1 .54 0 1 .44 1 1zm-3.05 7.58c0 .55-.44 1-1 1-.54 0-1-.45-1-1s.46-1 1-1c.56 0 1 .45 1 1zm-3.63 7.3c0 .57-.45 1-1 1s-1-.43-1-1c0-.54.45-1 1-1s1 .46 1 1zm-4.16 7.04c0 .55-.44 1-1 1-.55 0-1-.45-1-1s.45-1 1-1c.56 0 1 .45 1 1zm-4.68 6.7c0 .54-.45 1-1 1s-1-.46-1-1c0-.56.45-1 1-1s1 .44 1 1zm-5.23 6.26c0 .56-.46 1-1 1-.57 0-1-.44-1-1 0-.55.43-1 1-1 .54 0 1 .45 1 1zm-5.73 5.84c0 .55-.45 1-1 1s-1-.45-1-1 .45-1 1-1 1 .45 1 1zm-6.17 5.35c0 .55-.45 1-1 1s-1-.45-1-1 .45-1 1-1 1 .45 1 1zm-6.6 4.8c0 .57-.45 1-1 1s-1-.43-1-1c0-.54.45-1 1-1s1 .46 1 1zm-7 4.23c0 .55-.44 1-1 1-.55 0-1-.45-1-1s.45-1 1-1c.56 0 1 .45 1 1zm-7.33 3.6c0 .55-.45 1-1 1s-1-.45-1-1 .45-1 1-1 1 .45 1 1zm-7.6 2.95c0 .55-.46 1-1 1-.57 0-1-.45-1-1s.43-1 1-1c.54 0 1 .45 1 1zm-7.85 2.3c0 .55-.45 1-1 1s-1-.45-1-1 .45-1 1-1 1 .45 1 1zm-8 1.64c0 .54-.45 1-1 1-.56 0-1-.46-1-1 0-.57.44-1 1-1 .55 0 1 .43 1 1zm-8.1.96c0 .55-.46 1-1 1-.57 0-1-.45-1-1s.43-1 1-1c.54 0 1 .45 1 1z" fill="#5f4d93"/><path d="M1226.88 352.9l-1.03-.06h1.03zM1140.2 463.36l-14.56-3.57 13.9-5.7z" fill="#5f4d93"/><path d="M1141.3 464.66l-15.66-3.84v-2.1l14.78-6.06zm-12.43-5.1l10.24 2.5-.47-6.5z" fill="#5f4d93"/><path d="M977.4 459.8l-4.7-.12-4.6-.32-4.46-.53-4.35-.72-4.26-.9-4.15-1.1-4.07-1.26-3.98-1.45-3.9-1.65-3.8-1.8-3.74-2-3.65-2.2-3.58-2.36-3.5-2.56-3.4-2.75-3.33-2.95-3.23-3.14-3.1-3.33-3.03-3.54-2.9-3.74-2.77-3.96-2.63-4.14-2.48-4.34-2.32-4.53-2.14-4.72-1.95-4.9-1.75-5.06-1.54-5.23-1.3-5.37-1.06-5.52-.83-5.63-.55-5.75-.3-5.84-.05-3.54" fill="none"/><path d="M978.4 459.8c0 .54-.44 1-1 1-.55 0-1-.46-1-1 0-.57.45-1 1-1 .56 0 1 .43 1 1zm-8.05-.36c0 .56-.45 1-1 1s-1-.44-1-1c0-.55.45-1 1-1s1 .45 1 1zm-8-1c0 .57-.45 1-1 1s-1-.43-1-1c0-.54.45-1 1-1s1 .46 1 1zm-7.9-1.65c0 .54-.43 1-1 1-.54 0-1-.46-1-1 0-.56.46-1 1-1 .57 0 1 .44 1 1zm-7.7-2.35c0 .55-.45 1-1 1s-1-.45-1-1c0-.56.45-1 1-1s1 .44 1 1zm-7.47-3.02c0 .55-.45 1-1 1-.56 0-1-.45-1-1s.44-1 1-1c.55 0 1 .45 1 1zm-7.18-3.67c0 .55-.45 1-1 1s-1-.45-1-1c0-.56.45-1 1-1s1 .44 1 1zm-6.82-4.3c0 .55-.45 1-1 1-.56 0-1-.45-1-1s.44-1 1-1c.55 0 1 .45 1 1zm-6.4-4.9c0 .57-.46 1-1 1-.57 0-1-.43-1-1 0-.54.43-1 1-1 .54 0 1 .46 1 1zm-6-5.4c0 .55-.43 1-1 1-.54 0-1-.45-1-1 0-.56.46-1 1-1 .57 0 1 .44 1 1zm-5.5-5.9c0 .56-.44 1-1 1-.54 0-1-.44-1-1 0-.55.46-1 1-1 .56 0 1 .45 1 1zm-5-6.3c0 .55-.46 1-1 1-.56 0-1-.45-1-1s.44-1 1-1c.54 0 1 .45 1 1zm-4.5-6.7c0 .55-.45 1-1 1s-1-.45-1-1 .45-1 1-1 1 .45 1 1zm-3.96-7.02c0 .56-.45 1-1 1s-1-.44-1-1c0-.55.45-1 1-1s1 .45 1 1zm-3.46-7.28c0 .55-.45 1-1 1-.56 0-1-.45-1-1s.44-1 1-1c.55 0 1 .45 1 1zm-2.9-7.53c0 .56-.43 1-1 1-.54 0-1-.44-1-1 0-.55.46-1 1-1 .57 0 1 .45 1 1zm-2.38-7.7c0 .56-.45 1-1 1s-1-.44-1-1c0-.55.45-1 1-1s1 .45 1 1zm-1.8-7.85c0 .55-.46 1-1 1-.56 0-1-.45-1-1s.44-1 1-1c.54 0 1 .45 1 1zm-1.33-7.96c0 .56-.44 1-1 1-.55 0-1-.44-1-1 0-.55.45-1 1-1 .56 0 1 .45 1 1zm-.77-8.02c0 .55-.45 1-1 1s-1-.45-1-1 .45-1 1-1 1 .45 1 1z" fill="#5f4d93"/><path d="M977.4 460.8l-.07-.02.08-1.02zM885.48 366.8l-9.25.56 3.77-14.52z" fill="#5f4d93"/><path d="M886.92 367.72l-12 .72 4.05-15.6h2.1zm-9.38-1.44l6.5-.4-3.85-9.8z" fill="#5f4d93"/><path d="M251.47 281.54h20.93v-.27h20.92" stroke="#5f4d93" stroke-width="2" fill="none"/><path d="M251.47 282.54h-.02l.02-1-.02-1h.02zM293.32 281.27l-14.26 4.64v-9.26z" fill="#5f4d93"/><path d="M294.64 280.65v1.24l-16.58 5.38v-12.02zm-14.58 3.88l10.03-3.26-10.04-3.26z" fill="#5f4d93"/><path d="M506.1 281.27h21.6v.27h21.6" stroke="#5f4d93" stroke-width="2" fill="none"/><path d="M549.3 281.54L535 286.18v-9.27z" fill="#5f4d93"/><path d="M549.3 280.5v2.1L534 287.54v-12.02zM536 284.8l10.03-3.26-10.03-3.26z" fill="#5f4d93"/><defs><path fill="#5f4d93" d="M503 0H60v-700h137v578h306V0" id="A"/><path fill="#5f4d93" d="M60-700h415v122H197v163h253v122H197v171h283V0H60v-700" id="B"/><path fill="#5f4d93" d="M405-155H190L137 0H0l252-705h101L605 0H461zM225-265h150c-28-85-59-167-73-266h-5c-14 99-44 182-72 266" id="C"/><path fill="#5f4d93" d="M251 11C190 11 116 7 60 1v-701c61-8 136-9 204-10 233 0 345 125 345 354 0 233-120 367-358 367zm214-367c0-166-88-259-268-228v469c184 30 268-70 268-241" id="D"/><g id="a"><use transform="matrix(0.03333333333333333,0,0,0.03333333333333333,0,0)" xlink:href="#A"/><use transform="matrix(0.03333333333333333,0,0,0.03333333333333333,17.133333333333333,0)" xlink:href="#B"/><use transform="matrix(0.03333333333333333,0,0,0.03333333333333333,34.53333333333333,0)" xlink:href="#C"/><use transform="matrix(0.03333333333333333,0,0,0.03333333333333333,54.699999999999996,0)" xlink:href="#D"/></g><path fill="#5f4d93" d="M376-109c57 1 96-12 130-32l28 112C494 1 420 14 351 14 136 14 41-127 38-350c-3-258 153-398 418-356 28 4 50 12 68 19l-27 116c-35-16-76-21-131-21-127 0-187 96-184 242 2 141 56 237 194 241" id="E"/><path fill="#5f4d93" d="M335 14C121 14 41-135 38-350c-3-216 93-364 297-364 213 0 294 149 297 364 2 215-94 364-297 364zm0-606c-118 0-155 101-153 242 2 128 30 242 153 242 120 0 155-98 153-242-2-127-29-242-153-242" id="F"/><path fill="#5f4d93" d="M234-365l-55-110h-5l16 110V0H60v-705h100l265 373 53 107h5l-16-107v-368h130V5H497" id="G"/><path fill="#5f4d93" d="M557-578H353V0H216v-578H11v-122h546v122" id="H"/><path fill="#5f4d93" d="M74-700h137V0H74v-700" id="I"/><path fill="#5f4d93" d="M321-110c92-2 118-51 119-148v-442h130v452C568-81 489 12 323 12 146 12 57-69 57-231v-469h137v442c-2 95 32 150 127 148" id="J"/><path fill="#5f4d93" d="M603 0c3-170-9-354 15-502h-6l-43 112-149 261h-44L219-391l-44-111h-5l20 138V0H60v-700h125l187 320 33 80h4l30-82 177-318h124V0H603" id="K"/><g id="b"><use transform="matrix(0.03333333333333333,0,0,0.03333333333333333,0,0)" xlink:href="#E"/><use transform="matrix(0.03333333333333333,0,0,0.03333333333333333,17.53333333333333,0)" xlink:href="#F"/><use transform="matrix(0.03333333333333333,0,0,0.03333333333333333,39.86666666666666,0)" xlink:href="#G"/><use transform="matrix(0.03333333333333333,0,0,0.03333333333333333,61.76666666666666,0)" xlink:href="#H"/><use transform="matrix(0.03333333333333333,0,0,0.03333333333333333,80.69999999999999,0)" xlink:href="#I"/><use transform="matrix(0.03333333333333333,0,0,0.03333333333333333,90.19999999999999,0)" xlink:href="#G"/><use transform="matrix(0.03333333333333333,0,0,0.03333333333333333,112.1,0)" xlink:href="#J"/><use transform="matrix(0.03333333333333333,0,0,0.03333333333333333,133,0)" xlink:href="#J"/><use transform="matrix(0.03333333333333333,0,0,0.03333333333333333,153.9,0)" xlink:href="#K"/></g><path fill="#fff" d="M291-416c125 0 204 78 201 205-4 136-75 223-213 223C131 12 60-84 60-235c0-203 77-349 202-429 41-26 86-41 134-48l17 64c-154 32-240 146-269 304 24-38 80-72 147-72zM280-58c84 0 129-59 129-145 0-94-42-143-135-143-62 0-115 38-134 78-11 116 31 210 140 210" id="L"/><path fill="#fff" d="M272 12C91 12 43-150 43-350c0-120 20-210 59-271s95-91 170-91c188 0 230 150 230 362 0 120-19 210-58 271s-97 91-172 91zm147-362c0-142-13-292-147-292-50 0-90 22-110 71C106-435 89-59 272-58c51 0 88-23 112-70s35-121 35-222" id="M"/><path fill="#fff" d="M59-325h242v74H59v-74" id="N"/><path fill="#fff" d="M623 0c4-191-10-400 10-575h-5l-38 96-182 316h-25L190-480l-36-95h-5l14 104V0H85v-700h62l219 358c12 26 21 55 35 78l31-80 209-356h65V0h-83" id="O"/><path fill="#fff" d="M94-500h80V0H94v-500zm38-99c-31 0-55-23-55-53s24-56 55-56 58 26 58 56-28 53-58 53" id="P"/><path fill="#fff" d="M313-512c130 0 165 79 165 210V0h-80v-285c-2-94-16-155-105-157-72-1-118 46-136 100V0H77v-500h56l15 61h4c32-42 86-73 161-73" id="Q"/><path fill="#fff" d="M232 12C103 12 68-68 69-198v-302h80v285c0 87 12 158 98 157 78-1 111-51 135-108v-334h80c4 166-10 350 11 500h-55l-20-79h-5c-31 50-80 91-161 91" id="R"/><path fill="#fff" d="M200 12C109 10 89-39 89-138v-292H11v-70h78v-99l80-23v122h136v70H169v277c1 59 6 93 57 95 38 1 55-9 84-20l18 61c-35 17-77 30-128 29" id="S"/><path fill="#fff" d="M293-58c43 0 98-19 119-40l30 58C404-9 338 12 270 12 112 10 51-92 49-250c-1-159 70-258 220-262 155-4 211 110 184 270H132c0 116 45 184 161 184zm88-247c1-92-30-137-111-137-89 0-129 46-137 137h248" id="T"/><g id="d"><use transform="matrix(0.022222222222222223,0,0,0.022222222222222223,0,0)" xlink:href="#L"/><use transform="matrix(0.022222222222222223,0,0,0.022222222222222223,12.11111111111111,0)" xlink:href="#M"/><use transform="matrix(0.022222222222222223,0,0,0.022222222222222223,24.22222222222222,0)" xlink:href="#N"/><use transform="matrix(0.022222222222222223,0,0,0.022222222222222223,32.22222222222222,0)" xlink:href="#O"/><use transform="matrix(0.022222222222222223,0,0,0.022222222222222223,49.800000000000004,0)" xlink:href="#P"/><use transform="matrix(0.022222222222222223,0,0,0.022222222222222223,55.75555555555556,0)" xlink:href="#Q"/><use transform="matrix(0.022222222222222223,0,0,0.022222222222222223,67.91111111111111,0)" xlink:href="#R"/><use transform="matrix(0.022222222222222223,0,0,0.022222222222222223,79.88888888888889,0)" xlink:href="#S"/><use transform="matrix(0.022222222222222223,0,0,0.022222222222222223,87.17777777777778,0)" xlink:href="#T"/></g><path fill="#fff" d="M290-509c71-1 121 13 170 30V23c0 132-72 189-204 189-71 0-115-8-159-27l21-68c37 13 69 25 124 25 122 0 148-66 139-191h-4c-28 39-65 61-132 60C95 9 50-86 49-248c-1-166 78-261 241-261zM132-249c2 104 25 190 127 190 75 0 106-39 121-105v-256c-27-13-61-19-102-19-103 0-147 74-146 190" id="U"/><g id="e"><use transform="matrix(0.022222222222222223,0,0,0.022222222222222223,0,0)" xlink:href="#O"/><use transform="matrix(0.022222222222222223,0,0,0.022222222222222223,17.57777777777778,0)" xlink:href="#T"/><use transform="matrix(0.022222222222222223,0,0,0.022222222222222223,28.622222222222227,0)" xlink:href="#T"/><use transform="matrix(0.022222222222222223,0,0,0.022222222222222223,39.91111111111112,0)" xlink:href="#S"/><use transform="matrix(0.022222222222222223,0,0,0.022222222222222223,47.44444444444444,0)" xlink:href="#P"/><use transform="matrix(0.022222222222222223,0,0,0.022222222222222223,53.4,0)" xlink:href="#Q"/><use transform="matrix(0.022222222222222223,0,0,0.022222222222222223,65.55555555555556,0)" xlink:href="#U"/></g><filter id="c" filterUnits="objectBoundingBox" x="-.05" y="-.02" width="1.09" height="1.09"><feOffset result="offOut" in="SourceAlpha" dy="6"/><feGaussianBlur result="blurOut" in="offOut" stdDeviation="5"/><feColorMatrix result="colorOut" in="blurOut" values="0 0 0 0 0 0 0 0 0 0 0 0 0 0 0 0 0 0 0.5019607843137255 0"/><feBlend in="SourceGraphic" in2="colorOut"/></filter><path fill="#fff" d="M85-700h381v74H168v239h278v74H168V0H85v-700" id="V"/><path fill="#fff" d="M268 12C112 12 51-93 49-250c-1-158 69-262 219-262 156 0 217 105 219 262 1 158-69 262-219 262zm136-262c0-105-32-190-136-192-91-2-136 63-136 192 0 105 33 189 136 192 91 2 136-63 136-192" id="W"/><path fill="#fff" d="M281-58c46 1 86-17 111-36l26 61c-37 28-94 45-157 45C104 12 53-93 49-250c-5-188 108-294 299-254 22 5 42 12 60 21l-23 69c-29-16-66-28-111-28-95 0-142 64-142 192 0 110 39 189 149 192" id="X"/><path fill="#fff" d="M63-93c59 36 240 71 234-43-5-91-121-82-179-124-34-24-62-54-62-113 0-97 59-138 155-139 66-1 112 13 154 32l-19 66c-52-26-221-63-210 39 9 83 124 74 178 118 33 27 64 57 63 118-3 103-68 149-174 151C134 13 81-3 39-25" id="Y"/><g id="g"><use transform="matrix(0.022222222222222223,0,0,0.022222222222222223,0,0)" xlink:href="#V"/><use transform="matrix(0.022222222222222223,0,0,0.022222222222222223,11.488888888888889,0)" xlink:href="#W"/><use transform="matrix(0.022222222222222223,0,0,0.022222222222222223,23.400000000000002,0)" xlink:href="#X"/><use transform="matrix(0.022222222222222223,0,0,0.022222222222222223,33.42222222222222,0)" xlink:href="#R"/><use transform="matrix(0.022222222222222223,0,0,0.022222222222222223,45.39999999999999,0)" xlink:href="#Y"/><use transform="matrix(0.022222222222222223,0,0,0.022222222222222223,54.755555555555546,0)" xlink:href="#P"/><use transform="matrix(0.022222222222222223,0,0,0.022222222222222223,60.7111111111111,0)" xlink:href="#Q"/><use transform="matrix(0.022222222222222223,0,0,0.022222222222222223,72.86666666666666,0)" xlink:href="#U"/></g><path fill="#fff" d="M104-500c49 140 107 271 148 420h5c31-148 79-280 119-420h81C396-319 339-134 276 44c-20 55-46 106-82 140-28 26-82 25-117 11l14-69c34 12 54 2 79-24 17-20 32-54 43-102L12-500h92" id="Z"/><path fill="#fff" d="M152-439c26-60 97-88 178-61l-17 77c-74-29-156 5-156 73V0H77v-500h56l15 61h4" id="aa"/><g id="h"><use transform="matrix(0.022222222222222223,0,0,0.022222222222222223,0,0)" xlink:href="#Z"/><use transform="matrix(0.022222222222222223,0,0,0.022222222222222223,10.11111111111111,0)" xlink:href="#W"/><use transform="matrix(0.022222222222222223,0,0,0.022222222222222223,22.022222222222222,0)" xlink:href="#R"/><use transform="matrix(0.022222222222222223,0,0,0.022222222222222223,34,0)" xlink:href="#aa"/></g><path fill="#fff" d="M104-700h83V0h-83v-700" id="ab"/><path fill="#fff" d="M247 9C183 10 114-8 77-29v-671h80v249h4c28-36 76-61 136-61 144 0 194 97 194 254C491-91 407 8 247 9zm161-268c-2-100-27-183-125-183-74 0-109 46-126 107v252c24 14 63 22 102 22 105 0 151-78 149-198" id="ac"/><path fill="#fff" d="M276-509c50 0 69 4 105 17v-208h80v528c1 67-1 118 10 174h-54l-20-71h-4c-25 44-78 82-147 81C97 8 50-86 49-248c-1-159 77-260 227-261zM132-248c1 104 26 190 127 190 75 0 108-41 122-107v-248c-27-20-53-26-102-26-105 0-148 72-147 191" id="ad"/><g id="i"><use transform="matrix(0.022222222222222223,0,0,0.022222222222222223,0,0)" xlink:href="#ab"/><use transform="matrix(0.022222222222222223,0,0,0.022222222222222223,6.466666666666667,0)" xlink:href="#Q"/><use transform="matrix(0.022222222222222223,0,0,0.022222222222222223,18.622222222222224,0)" xlink:href="#ac"/><use transform="matrix(0.022222222222222223,0,0,0.022222222222222223,30.622222222222224,0)" xlink:href="#W"/><use transform="matrix(0.022222222222222223,0,0,0.022222222222222223,42.53333333333333,0)" xlink:href="#R"/><use transform="matrix(0.022222222222222223,0,0,0.022222222222222223,54.511111111111106,0)" xlink:href="#Q"/><use transform="matrix(0.022222222222222223,0,0,0.022222222222222223,66.66666666666666,0)" xlink:href="#ad"/></g><path fill="#fff" d="M422-354c0 120-19 253 8 356h-59l-21-70h-5C315-22 265 8 189 8 98 8 39-43 39-134c0-147 152-157 302-151 10-93 1-159-99-153-57 4-110 14-148 35l-25-60c48-30 118-45 194-45 108-1 159 51 159 154zM122-142c-2 47 40 81 89 80 67-1 109-32 130-79v-83c-95-3-214-10-219 82" id="ae"/><path fill="#fff" d="M203-225h-46V0H77v-700h80v426l41-14 155-212h93L293-299l-41 33 50 40L469 0h-99" id="af"/><g id="j"><use transform="matrix(0.022222222222222223,0,0,0.022222222222222223,0,0)" xlink:href="#O"/><use transform="matrix(0.022222222222222223,0,0,0.022222222222222223,17.57777777777778,0)" xlink:href="#ae"/><use transform="matrix(0.022222222222222223,0,0,0.022222222222222223,28.6,0)" xlink:href="#aa"/><use transform="matrix(0.022222222222222223,0,0,0.022222222222222223,36.15555555555556,0)" xlink:href="#af"/><use transform="matrix(0.022222222222222223,0,0,0.022222222222222223,46.266666666666666,0)" xlink:href="#T"/><use transform="matrix(0.022222222222222223,0,0,0.022222222222222223,57.55555555555557,0)" xlink:href="#S"/><use transform="matrix(0.022222222222222223,0,0,0.022222222222222223,65.0888888888889,0)" xlink:href="#P"/><use transform="matrix(0.022222222222222223,0,0,0.022222222222222223,71.04444444444445,0)" xlink:href="#Q"/><use transform="matrix(0.022222222222222223,0,0,0.022222222222222223,83.2,0)" xlink:href="#U"/></g><filter id="f" filterUnits="objectBoundingBox" x="-.05" y="-.02" width="1.09" height="1.09"><feOffset result="offOut" in="SourceAlpha" dy="6"/><feGaussianBlur result="blurOut" in="offOut" stdDeviation="5"/><feColorMatrix result="colorOut" in="blurOut" values="0 0 0 0 0 0 0 0 0 0 0 0 0 0 0 0 0 0 0.5019607843137255 0"/><feBlend in="SourceGraphic" in2="colorOut"/></filter><path fill="#fff" d="M378-62c56 2 101-12 135-32l20 65C494 2 428 12 359 12 150 12 58-132 56-350c-2-250 141-394 402-356 25 4 47 11 65 18l-20 73c-32-15-78-23-137-23-158 0-222 119-222 288S215-68 378-62" id="ag"/><g id="k"><use transform="matrix(0.022222222222222223,0,0,0.022222222222222223,0,0)" xlink:href="#ag"/><use transform="matrix(0.022222222222222223,0,0,0.022222222222222223,12.311111111111112,0)" xlink:href="#aa"/><use transform="matrix(0.022222222222222223,0,0,0.022222222222222223,19.866666666666667,0)" xlink:href="#T"/><use transform="matrix(0.022222222222222223,0,0,0.022222222222222223,31.155555555555555,0)" xlink:href="#ae"/><use transform="matrix(0.022222222222222223,0,0,0.022222222222222223,42.17777777777778,0)" xlink:href="#S"/><use transform="matrix(0.022222222222222223,0,0,0.022222222222222223,49.711111111111116,0)" xlink:href="#P"/><use transform="matrix(0.022222222222222223,0,0,0.022222222222222223,55.66666666666667,0)" xlink:href="#Q"/><use transform="matrix(0.022222222222222223,0,0,0.022222222222222223,67.82222222222222,0)" xlink:href="#U"/></g><path fill="#fff" d="M314-512c131 0 164 78 164 210V0h-80v-285c1-91-15-157-107-157-66 0-134 50-134 109V0H77v-700h80v256h4c35-40 79-68 153-68" id="ah"/><g id="l"><use transform="matrix(0.022222222222222223,0,0,0.022222222222222223,0,0)" xlink:href="#S"/><use transform="matrix(0.022222222222222223,0,0,0.022222222222222223,7.533333333333333,0)" xlink:href="#ah"/><use transform="matrix(0.022222222222222223,0,0,0.022222222222222223,19.68888888888889,0)" xlink:href="#T"/></g><g id="m"><use transform="matrix(0.022222222222222223,0,0,0.022222222222222223,0,0)" xlink:href="#X"/><use transform="matrix(0.022222222222222223,0,0,0.022222222222222223,9.511111111111111,0)" xlink:href="#W"/><use transform="matrix(0.022222222222222223,0,0,0.022222222222222223,21.422222222222224,0)" xlink:href="#Q"/><use transform="matrix(0.022222222222222223,0,0,0.022222222222222223,33.57777777777778,0)" xlink:href="#ad"/><use transform="matrix(0.022222222222222223,0,0,0.022222222222222223,45.53333333333334,0)" xlink:href="#P"/><use transform="matrix(0.022222222222222223,0,0,0.022222222222222223,51.488888888888894,0)" xlink:href="#S"/><use transform="matrix(0.022222222222222223,0,0,0.022222222222222223,59.022222222222226,0)" xlink:href="#P"/><use transform="matrix(0.022222222222222223,0,0,0.022222222222222223,64.97777777777779,0)" xlink:href="#W"/><use transform="matrix(0.022222222222222223,0,0,0.022222222222222223,76.8888888888889,0)" xlink:href="#Q"/><use transform="matrix(0.022222222222222223,0,0,0.022222222222222223,89.04444444444445,0)" xlink:href="#Y"/></g><path fill="#fff" d="M251-636c-75-3-71 63-71 136h133v70H180V0h-80v-430H22v-70h78c-5-124 22-209 143-206 47 1 73 5 108 19l-18 67c-26-12-50-15-82-16" id="ai"/><g id="n"><use transform="matrix(0.022222222222222223,0,0,0.022222222222222223,0,0)" xlink:href="#W"/><use transform="matrix(0.022222222222222223,0,0,0.022222222222222223,11.644444444444446,0)" xlink:href="#ai"/></g><path fill="#fff" d="M189 12C123 10 86-25 86-100v-600h80v577c-10 72 59 74 108 54l9 63c-18 10-66 18-94 18" id="aj"/><g id="o"><use transform="matrix(0.022222222222222223,0,0,0.022222222222222223,0,0)" xlink:href="#Y"/><use transform="matrix(0.022222222222222223,0,0,0.022222222222222223,9.355555555555556,0)" xlink:href="#R"/><use transform="matrix(0.022222222222222223,0,0,0.022222222222222223,21.333333333333336,0)" xlink:href="#X"/><use transform="matrix(0.022222222222222223,0,0,0.022222222222222223,30.844444444444445,0)" xlink:href="#X"/><use transform="matrix(0.022222222222222223,0,0,0.022222222222222223,40.355555555555554,0)" xlink:href="#T"/><use transform="matrix(0.022222222222222223,0,0,0.022222222222222223,51.644444444444446,0)" xlink:href="#Y"/><use transform="matrix(0.022222222222222223,0,0,0.022222222222222223,61,0)" xlink:href="#Y"/><use transform="matrix(0.022222222222222223,0,0,0.022222222222222223,70.35555555555555,0)" xlink:href="#ai"/><use transform="matrix(0.022222222222222223,0,0,0.022222222222222223,77.44444444444444,0)" xlink:href="#R"/><use transform="matrix(0.022222222222222223,0,0,0.022222222222222223,89.42222222222222,0)" xlink:href="#aj"/></g><path fill="#fff" d="M568-442c-74 2-103 45-118 108V0h-80v-283c0-87-6-159-94-159-65 0-104 47-119 98V0H77v-500h56l15 61h4c37-41 77-74 155-73 72 1 105 26 126 83 28-48 82-81 155-83 130-3 155 82 155 212V0h-80v-301c1-83-12-143-95-141" id="ak"/><g id="p"><use transform="matrix(0.022222222222222223,0,0,0.022222222222222223,0,0)" xlink:href="#ak"/><use transform="matrix(0.022222222222222223,0,0,0.022222222222222223,18.044444444444444,0)" xlink:href="#ae"/><use transform="matrix(0.022222222222222223,0,0,0.022222222222222223,29.066666666666666,0)" xlink:href="#aa"/><use transform="matrix(0.022222222222222223,0,0,0.022222222222222223,36.62222222222222,0)" xlink:href="#af"/><use transform="matrix(0.022222222222222223,0,0,0.022222222222222223,46.733333333333334,0)" xlink:href="#T"/><use transform="matrix(0.022222222222222223,0,0,0.022222222222222223,58.022222222222226,0)" xlink:href="#S"/><use transform="matrix(0.022222222222222223,0,0,0.022222222222222223,65.55555555555556,0)" xlink:href="#P"/><use transform="matrix(0.022222222222222223,0,0,0.022222222222222223,71.51111111111112,0)" xlink:href="#Q"/><use transform="matrix(0.022222222222222223,0,0,0.022222222222222223,83.66666666666667,0)" xlink:href="#U"/></g><path fill="#fff" d="M222-231c6 38 10 79 17 116l17-118 144-467h40l145 469c6 38 10 79 18 116l18-118 118-467h81L625 11h-46L437-458l-18-106h-5l-18 107L254 11h-46L8-700h88" id="al"/><g id="r"><use transform="matrix(0.022222222222222223,0,0,0.022222222222222223,0,0)" xlink:href="#al"/><use transform="matrix(0.022222222222222223,0,0,0.022222222222222223,17.46666666666667,0)" xlink:href="#T"/><use transform="matrix(0.022222222222222223,0,0,0.022222222222222223,28.511111111111113,0)" xlink:href="#T"/><use transform="matrix(0.022222222222222223,0,0,0.022222222222222223,39.800000000000004,0)" xlink:href="#af"/><use transform="matrix(0.022222222222222223,0,0,0.022222222222222223,50.44444444444444,0)" xlink:href="#aj"/><use transform="matrix(0.022222222222222223,0,0,0.022222222222222223,56.93333333333334,0)" xlink:href="#Z"/></g><g id="s"><use transform="matrix(0.022222222222222223,0,0,0.022222222222222223,0,0)" xlink:href="#ab"/><use transform="matrix(0.022222222222222223,0,0,0.022222222222222223,6.466666666666667,0)" xlink:href="#Q"/><use transform="matrix(0.022222222222222223,0,0,0.022222222222222223,18.622222222222224,0)" xlink:href="#ac"/><use transform="matrix(0.022222222222222223,0,0,0.022222222222222223,30.622222222222224,0)" xlink:href="#W"/><use transform="matrix(0.022222222222222223,0,0,0.022222222222222223,42.53333333333333,0)" xlink:href="#R"/><use transform="matrix(0.022222222222222223,0,0,0.022222222222222223,54.511111111111106,0)" xlink:href="#Q"/><use transform="matrix(0.022222222222222223,0,0,0.022222222222222223,66.66666666666666,0)" xlink:href="#ad"/></g><g id="t"><use transform="matrix(0.022222222222222223,0,0,0.022222222222222223,0,0)" xlink:href="#al"/><use transform="matrix(0.022222222222222223,0,0,0.022222222222222223,17.46666666666667,0)" xlink:href="#W"/><use transform="matrix(0.022222222222222223,0,0,0.022222222222222223,29.37777777777778,0)" xlink:href="#aa"/><use transform="matrix(0.022222222222222223,0,0,0.022222222222222223,36.93333333333334,0)" xlink:href="#af"/></g><filter id="q" filterUnits="objectBoundingBox" x="-.07" y="-.03" width="1.13" height="1.14"><feOffset result="offOut" in="SourceAlpha" dy="6"/><feGaussianBlur result="blurOut" in="offOut" stdDeviation="5"/><feColorMatrix result="colorOut" in="blurOut" values="0 0 0 0 0 0 0 0 0 0 0 0 0 0 0 0 0 0 0.5019607843137255 0"/><feBlend in="SourceGraphic" in2="colorOut"/></filter><path fill="#fff" d="M537-626H319V0h-83v-626H18v-74h519v74" id="am"/><g id="u"><use transform="matrix(0.022222222222222223,0,0,0.022222222222222223,0,0)" xlink:href="#am"/><use transform="matrix(0.022222222222222223,0,0,0.022222222222222223,10,0)" xlink:href="#aa"/><use transform="matrix(0.022222222222222223,0,0,0.022222222222222223,17.555555555555557,0)" xlink:href="#ae"/><use transform="matrix(0.022222222222222223,0,0,0.022222222222222223,28.57777777777778,0)" xlink:href="#X"/><use transform="matrix(0.022222222222222223,0,0,0.022222222222222223,38.6,0)" xlink:href="#S"/><use transform="matrix(0.022222222222222223,0,0,0.022222222222222223,46.13333333333333,0)" xlink:href="#P"/><use transform="matrix(0.022222222222222223,0,0,0.022222222222222223,52.08888888888889,0)" xlink:href="#W"/><use transform="matrix(0.022222222222222223,0,0,0.022222222222222223,64,0)" xlink:href="#Q"/></g><g id="v"><use transform="matrix(0.022222222222222223,0,0,0.022222222222222223,0,0)" xlink:href="#O"/><use transform="matrix(0.022222222222222223,0,0,0.022222222222222223,17.57777777777778,0)" xlink:href="#W"/><use transform="matrix(0.022222222222222223,0,0,0.022222222222222223,29.48888888888889,0)" xlink:href="#Q"/><use transform="matrix(0.022222222222222223,0,0,0.022222222222222223,41.644444444444446,0)" xlink:href="#S"/><use transform="matrix(0.022222222222222223,0,0,0.022222222222222223,49.17777777777778,0)" xlink:href="#ah"/><use transform="matrix(0.022222222222222223,0,0,0.022222222222222223,61.333333333333336,0)" xlink:href="#aj"/><use transform="matrix(0.022222222222222223,0,0,0.022222222222222223,67.82222222222222,0)" xlink:href="#Z"/></g><path fill="#fff" d="M493-515c2 111-71 179-159 201l48 37L556 0h-97L266-302l-98-15V0H85v-693c47-9 123-15 178-15 137 2 227 56 230 193zm-88 3c-1-85-69-132-167-124-24 2-50 2-70 6v258c131 10 239-16 237-140" id="an"/><path fill="#fff" d="M101-500c50 129 110 248 149 388 32-143 91-259 137-388h86L260 11h-34L9-500h92" id="ao"/><path fill="#fff" d="M401-500c47 129 107 245 140 388h2c23-142 72-259 108-388h76L559 11h-39L389-319l-19-82h-3l-20 83L221 11h-39L8-500h87l99 291c6 32 10 66 18 97 30-143 87-259 131-388h58" id="ap"/><g id="w"><use transform="matrix(0.022222222222222223,0,0,0.022222222222222223,0,0)" xlink:href="#an"/><use transform="matrix(0.022222222222222223,0,0,0.022222222222222223,12.155555555555557,0)" xlink:href="#T"/><use transform="matrix(0.022222222222222223,0,0,0.022222222222222223,22.955555555555556,0)" xlink:href="#ao"/><use transform="matrix(0.022222222222222223,0,0,0.022222222222222223,33.66666666666667,0)" xlink:href="#P"/><use transform="matrix(0.022222222222222223,0,0,0.022222222222222223,39.62222222222223,0)" xlink:href="#T"/><use transform="matrix(0.022222222222222223,0,0,0.022222222222222223,50.66666666666667,0)" xlink:href="#ap"/></g><path fill="#fff" d="M212 49c178-32 301 98 492 50v72c-165 44-297-46-446-55-16 0-31 2-46 6V49zm129-37C133 12 59-139 56-350c-2-213 86-362 285-362 209 0 284 150 287 362 2 214-87 362-287 362zm0-650c-145 0-200 119-197 288 3 154 48 288 197 288 146 0 202-119 199-288-3-155-49-288-199-288" id="aq"/><g id="x"><use transform="matrix(0.022222222222222223,0,0,0.022222222222222223,0,0)" xlink:href="#aq"/><use transform="matrix(0.022222222222222223,0,0,0.022222222222222223,15.200000000000001,0)" xlink:href="#R"/><use transform="matrix(0.022222222222222223,0,0,0.022222222222222223,27.177777777777777,0)" xlink:href="#ae"/><use transform="matrix(0.022222222222222223,0,0,0.022222222222222223,38.2,0)" xlink:href="#aa"/><use transform="matrix(0.022222222222222223,0,0,0.022222222222222223,46.422222222222224,0)" xlink:href="#S"/><use transform="matrix(0.022222222222222223,0,0,0.022222222222222223,53.711111111111116,0)" xlink:href="#T"/><use transform="matrix(0.022222222222222223,0,0,0.022222222222222223,65,0)" xlink:href="#aa"/><use transform="matrix(0.022222222222222223,0,0,0.022222222222222223,72.55555555555556,0)" xlink:href="#aj"/><use transform="matrix(0.022222222222222223,0,0,0.022222222222222223,79.04444444444445,0)" xlink:href="#Z"/></g><g id="y"><use transform="matrix(0.022222222222222223,0,0,0.022222222222222223,0,0)" xlink:href="#an"/><use transform="matrix(0.022222222222222223,0,0,0.022222222222222223,12.155555555555557,0)" xlink:href="#W"/><use transform="matrix(0.022222222222222223,0,0,0.022222222222222223,24.066666666666666,0)" xlink:href="#X"/><use transform="matrix(0.022222222222222223,0,0,0.022222222222222223,34.08888888888889,0)" xlink:href="#af"/></g><path fill="#fff" d="M74-100c89 50 337 72 327-78-8-132-168-134-251-198-46-36-87-77-87-158 0-190 253-210 408-146l-25 73c-38-17-105-31-168-31-104 0-173 93-107 164 94 102 313 99 313 289C484-48 386 9 246 12 162 13 95-2 46-25" id="ar"/><g id="z"><use transform="matrix(0.022222222222222223,0,0,0.022222222222222223,0,0)" xlink:href="#ar"/><use transform="matrix(0.022222222222222223,0,0,0.022222222222222223,11.8,0)" xlink:href="#T"/><use transform="matrix(0.022222222222222223,0,0,0.022222222222222223,23.08888888888889,0)" xlink:href="#S"/><use transform="matrix(0.022222222222222223,0,0,0.022222222222222223,30.62222222222222,0)" xlink:href="#S"/><use transform="matrix(0.022222222222222223,0,0,0.022222222222222223,38.15555555555555,0)" xlink:href="#P"/><use transform="matrix(0.022222222222222223,0,0,0.022222222222222223,44.11111111111111,0)" xlink:href="#Q"/><use transform="matrix(0.022222222222222223,0,0,0.022222222222222223,56.266666666666666,0)" xlink:href="#U"/></g></defs></g></svg>