<svg xmlns="http://www.w3.org/2000/svg" xmlns:xlink="http://www.w3.org/1999/xlink" width="944" height="336"><g transform="translate(0 0)"><g filter="url(#a)"><path d="M20 20h160v60H20z" stroke="#fff" stroke-width="2" fill="#fff"/><use xlink:href="#b" transform="matrix(1,0,0,1,25,25) translate(16.14999999999999 17.799999999999997)"/><use xlink:href="#c" transform="matrix(1,0,0,1,25,25) translate(90.9 17.799999999999997)"/><use xlink:href="#d" transform="matrix(1,0,0,1,25,25) translate(24.099999999999994 39.4)"/></g><g filter="url(#a)"><path d="M20 132h160v60H20z" stroke="#fff" stroke-width="2" fill="#fff"/><use xlink:href="#e" transform="matrix(1,0,0,1,25,137) translate(34.775 17.799999999999997)"/><use xlink:href="#f" transform="matrix(1,0,0,1,25,137) translate(40.025 39.4)"/></g><g filter="url(#a)"><path d="M148 261c17.67 0 32 13.43 32 30s-14.33 30-32 30H52c-17.67 0-32-13.43-32-30s14.33-30 32-30z" stroke="#fff" stroke-width="2" fill="#fff"/><use xlink:href="#g" transform="matrix(1,0,0,1,25,266) translate(25.625 28.6)"/></g><g filter="url(#h)"><path d="M440 60.77h123.08v55.38H440z" stroke="#fff" stroke-width="2" fill="#fff"/><use xlink:href="#i" transform="matrix(1,0,0,1,445.00000000000006,65.76923076923099) translate(33 26.6)"/></g><g filter="url(#h)"><path d="M600 62.46h123.08v55.4H600z" stroke="#fff" stroke-width="2" fill="#fff"/><use xlink:href="#i" transform="matrix(1,0,0,1,605,67.46153846153861) translate(33 26.6)"/></g><g filter="url(#h)"><path d="M760 61.08h123.08v55.38H760z" stroke="#fff" stroke-width="2" fill="#fff"/><use xlink:href="#i" transform="matrix(1,0,0,1,765,66.07692307692336) translate(33 26.6)"/></g><path d="M100 80v51" stroke="#fff" stroke-width="2" fill="none"/><path d="M100 131l-4.64-14.27h9.28z" fill="#fff"/><path d="M100.73 132h-1.46L94 115.73h12zm-4-14.27l3.27 10.03 3.26-10.03z" fill="#fff"/><path d="M563.08 88.46H599" stroke="#fff" stroke-width="2" fill="none"/><path d="M599 88.46l-14.27 4.64v-9.27z" fill="#fff"/><path d="M600 87.74v1.45l-16.27 5.27V82.45zm-14.27 3.98l10.03-3.26-10.03-3.26z" fill="#fff"/><path d="M100 192v68.25" stroke="#fff" stroke-width="2" fill="none"/><path d="M100 260.25l-4.64-14.27h9.28z" fill="#fff"/><path d="M100.8 261h-1.6L94 244.98h12zm-4.06-14.02L100 257l3.26-10.02z" fill="#fff"/><path d="M100 261v-69" stroke="#fff" stroke-width="2" fill="none"/><path d="M104.64 206.27h-9.28L100 192z" fill="#fff"/><path d="M106 207.27H94L98.94 192h2.1zm-9.26-2h6.52L100 195.24z" fill="#fff"/><path d="M180 162h30V89.3h30" stroke="#fff" stroke-width="2" fill="none"/><path d="M240 89.3l-14.27 4.64v-9.27z" fill="#fff"/><path d="M240 88.26v2.1l-15.27 4.96V83.3zm-13.27 4.3l10.03-3.25-10.03-3.25z" fill="#fff"/><g filter="url(#j)"><path d="M240 61.62h160V117H240z" stroke="#fff" stroke-width="2" fill="#fff"/><use xlink:href="#k" transform="matrix(1,0,0,1,245,66.6153846153848) translate(34.15 15.799999999999999)"/><use xlink:href="#l" transform="matrix(1,0,0,1,245,66.6153846153848) translate(25.799999999999997 37.4)"/><use xlink:href="#m" transform="matrix(1,0,0,1,245,66.6153846153848) translate(111.25 37.4)"/></g><path d="M723.08 90.15h17.96v-.38H759" stroke="#fff" stroke-width="2" fill="none"/><path d="M759 89.77l-14.27 4.63v-9.27z" fill="#fff"/><path d="M760 89.04v1.46l-16.27 5.28V83.76zm-14.27 4l10.03-3.27-10.03-3.26z" fill="#fff"/><g filter="url(#h)"><path d="M440 132.46h123.08v55.4H440z" stroke="#fff" stroke-width="2" fill="#fff"/><use xlink:href="#i" transform="matrix(1,0,0,1,445.00000000000006,137.46153846153862) translate(33 26.6)"/></g><g filter="url(#h)"><path d="M600 134.15h123.08v55.4H600z" stroke="#fff" stroke-width="2" fill="#fff"/><use xlink:href="#i" transform="matrix(1,0,0,1,605,139.15384615384625) translate(33 26.6)"/></g><g filter="url(#h)"><path d="M760 132.77h123.08v55.38H760z" stroke="#fff" stroke-width="2" fill="#fff"/><use xlink:href="#i" transform="matrix(1,0,0,1,764.9999999999999,137.769230769231) translate(33 26.6)"/></g><path d="M563.08 160.15H599" stroke="#fff" stroke-width="2" fill="none"/><path d="M599 160.15l-14.27 4.64v-9.28z" fill="#fff"/><path d="M600 159.43v1.45l-16.27 5.3v-12.04zm-14.27 3.98l10.03-3.25-10.03-3.26z" fill="#fff"/><g filter="url(#j)"><path d="M240 133.3h160v55.4H240z" stroke="#fff" stroke-width="2" fill="#fff"/><use xlink:href="#k" transform="matrix(1,0,0,1,245,138.30769230769243) translate(34.15 15.799999999999999)"/><use xlink:href="#l" transform="matrix(1,0,0,1,245,138.30769230769243) translate(25.799999999999997 37.4)"/><use xlink:href="#n" transform="matrix(1,0,0,1,245,138.30769230769243) translate(111.25 37.4)"/></g><path d="M723.08 161.85h17.96v-.4H759" stroke="#fff" stroke-width="2" fill="none"/><path d="M759 161.46l-14.27 4.64v-9.27z" fill="#fff"/><path d="M760 160.73v1.46l-16.27 5.27v-12.02zm-14.27 4l10.03-3.27-10.03-3.26z" fill="#fff"/><g filter="url(#h)"><path d="M440 204.15h123.08v55.4H440z" stroke="#fff" stroke-width="2" fill="#fff"/><use xlink:href="#i" transform="matrix(1,0,0,1,445.00000000000006,209.15384615384625) translate(33 26.6)"/></g><g filter="url(#h)"><path d="M600 205.85h123.08v55.38H600z" stroke="#fff" stroke-width="2" fill="#fff"/><use xlink:href="#i" transform="matrix(1,0,0,1,605,210.84615384615387) translate(33 26.6)"/></g><g filter="url(#h)"><path d="M760 204.46h123.08v55.4H760z" stroke="#fff" stroke-width="2" fill="#fff"/><use xlink:href="#i" transform="matrix(1,0,0,1,764.9999999999999,209.46153846153862) translate(33 26.6)"/></g><path d="M563.08 231.85H599" stroke="#fff" stroke-width="2" fill="none"/><path d="M599 231.85l-14.27 4.63v-9.27z" fill="#fff"/><path d="M600 231.12v1.45l-16.27 5.3v-12.04zm-14.27 4l10.03-3.27-10.03-3.26z" fill="#fff"/><g filter="url(#j)"><path d="M240 205h160v55.38H240z" stroke="#fff" stroke-width="2" fill="#fff"/><use xlink:href="#k" transform="matrix(1,0,0,1,245,210.00000000000006) translate(34.15 15.799999999999999)"/><use xlink:href="#l" transform="matrix(1,0,0,1,245,210.00000000000006) translate(25.799999999999997 37.4)"/><use xlink:href="#o" transform="matrix(1,0,0,1,245,210.00000000000006) translate(111.25 37.4)"/></g><path d="M723.08 233.54h17.96v-.4H759" stroke="#fff" stroke-width="2" fill="none"/><path d="M759 233.15l-14.27 4.64v-9.28z" fill="#fff"/><path d="M760 232.43v1.45l-16.27 5.3v-12.04zm-14.27 3.98l10.03-3.25-10.03-3.26z" fill="#fff"/><path d="M180 162h30v-1h30" stroke="#fff" stroke-width="2" fill="none"/><path d="M240 161l-14.27 4.64v-9.28z" fill="#fff"/><path d="M240 159.95v2.1L224.73 167v-12zm-13.27 4.3l10.03-3.25-10.03-3.26z" fill="#fff"/><path d="M180 162h30v70.7h30" stroke="#fff" stroke-width="2" fill="none"/><path d="M240 232.7l-14.27 4.63v-9.27z" fill="#fff"/><path d="M240 231.64v2.1l-15.27 4.96v-12.02zm-13.27 4.3l10.03-3.25-10.03-3.27z" fill="#fff"/><path d="M883.08 88.77h40V291H180" stroke="#fff" stroke-width="2" fill="none"/><path d="M194.27 295.64L180 291l14.27-4.64z" fill="#fff"/><path d="M195.27 297l-15.35-4.97.08-1.03v-.24l-.07-.8 15.34-4.97zm-12.03-6l10.03 3.26v-6.52z" fill="#fff"/><path d="M883.08 160.46h40V291H180" stroke="#fff" stroke-width="2" fill="none"/><path d="M194.27 295.64L180 291l14.27-4.64z" fill="#fff"/><path d="M195.27 297l-15.35-4.97.08-1.03v-.24l-.07-.8 15.34-4.97zm-12.03-6l10.03 3.26v-6.52z" fill="#fff"/><path d="M821.54 259.85V291H180" stroke="#fff" stroke-width="2" fill="none"/><path d="M194.27 295.64L180 291l14.27-4.64z" fill="#fff"/><path d="M195.27 297l-15.35-4.97.08-1.03v-.24l-.07-.8 15.34-4.97zm-12.03-6l10.03 3.26v-6.52z" fill="#fff"/><path d="M400 89.3h39" stroke="#fff" stroke-width="2" fill="none"/><path d="M439 89.3l-14.27 4.64v-9.27z" fill="#fff"/><path d="M440 88.58v1.45l-16.27 5.3V83.3zm-14.27 4l10.03-3.27-10.03-3.25z" fill="#fff"/><path d="M400 161h39" stroke="#fff" stroke-width="2" fill="none"/><path d="M439 161l-14.27 4.64v-9.28z" fill="#fff"/><path d="M440 160.27v1.46L423.73 167v-12zm-14.27 4l10.03-3.27-10.03-3.26z" fill="#fff"/><path d="M400 232.7h39" stroke="#fff" stroke-width="2" fill="none"/><path d="M439 232.7l-14.27 4.63v-9.27z" fill="#fff"/><path d="M440 231.97v1.45l-16.27 5.28v-12.02zm-14.27 3.98l10.03-3.26-10.03-3.27z" fill="#fff"/><defs><path fill="#333" d="M24 0v-248h52v208h133V0H24" id="p"/><path fill="#333" d="M133-34C117-15 103 5 69 4 32 3 11-16 11-54c-1-60 55-63 116-61 1-26-3-47-28-47-18 1-26 9-28 27l-52-2c7-38 36-58 82-57s74 22 75 68l1 82c-1 14 12 18 25 15v27c-30 8-71 5-69-32zm-48 3c29 0 43-24 42-57-32 0-66-3-65 30 0 17 8 27 23 27" id="q"/><path fill="#333" d="M135-194c87-1 58 113 63 194h-50c-7-57 23-157-34-157-59 0-34 97-39 157H25l-1-190h47c2 12-1 28 3 38 12-26 28-41 61-42" id="r"/><path fill="#333" d="M88-194c31-1 46 15 58 34l-1-101h50l1 261h-48c-2-10 0-23-3-31C134-8 116 4 84 4 32 4 16-41 15-95c0-56 19-97 73-99zm17 164c33 0 40-30 41-66 1-37-9-64-41-64s-38 30-39 65c0 43 13 65 39 65" id="s"/><path fill="#333" d="M25-224v-37h50v37H25zM25 0v-190h50V0H25" id="t"/><path fill="#333" d="M195-6C206 82 75 100 31 46c-4-6-6-13-8-21l49-6c3 16 16 24 34 25 40 0 42-37 40-79-11 22-30 35-61 35-53 0-70-43-70-97 0-56 18-96 73-97 30 0 46 14 59 34l2-30h47zm-90-29c32 0 41-27 41-63 0-35-9-62-40-62-32 0-39 29-40 63 0 36 9 62 39 62" id="u"/><g id="b"><use transform="matrix(0.05,0,0,0.05,0,0)" xlink:href="#p"/><use transform="matrix(0.05,0,0,0.05,10.950000000000001,0)" xlink:href="#q"/><use transform="matrix(0.05,0,0,0.05,20.950000000000003,0)" xlink:href="#r"/><use transform="matrix(0.05,0,0,0.05,31.900000000000006,0)" xlink:href="#s"/><use transform="matrix(0.05,0,0,0.05,42.85000000000001,0)" xlink:href="#t"/><use transform="matrix(0.05,0,0,0.05,47.85000000000001,0)" xlink:href="#r"/><use transform="matrix(0.05,0,0,0.05,58.80000000000001,0)" xlink:href="#u"/></g><path fill="#333" d="M24-248c93 1 206-16 204 79-1 75-69 88-152 82V0H24v-248zm52 121c47 0 100 7 100-41 0-47-54-39-100-39v80" id="v"/><path fill="#333" d="M185-48c-13 30-37 53-82 52C43 2 14-33 14-96s30-98 90-98c62 0 83 45 84 108H66c0 31 8 55 39 56 18 0 30-7 34-22zm-45-69c5-46-57-63-70-21-2 6-4 13-4 21h74" id="w"/><g id="c"><use transform="matrix(0.05,0,0,0.05,0,0)" xlink:href="#v"/><use transform="matrix(0.05,0,0,0.05,12,0)" xlink:href="#q"/><use transform="matrix(0.05,0,0,0.05,22,0)" xlink:href="#u"/><use transform="matrix(0.05,0,0,0.05,32.95,0)" xlink:href="#w"/></g><path fill="#333" d="M169-182c-1-43-94-46-97-3 18 66 151 10 154 114 3 95-165 93-204 36-6-8-10-19-12-30l50-8c3 46 112 56 116 5-17-69-150-10-154-114-4-87 153-88 188-35 5 8 8 18 10 28" id="x"/><path fill="#333" d="M85 4C-2 5 27-109 22-190h50c7 57-23 150 33 157 60-5 35-97 40-157h50l1 190h-47c-2-12 1-28-3-38-12 25-28 42-61 42" id="y"/><path fill="#333" d="M135-194c52 0 70 43 70 98 0 56-19 99-73 100-30 1-46-15-58-35L72 0H24l1-261h50v104c11-23 29-37 60-37zM114-30c31 0 40-27 40-66 0-37-7-63-39-63s-41 28-41 65c0 36 8 64 40 64" id="z"/><path fill="#333" d="M220-157c-53 9-28 100-34 157h-49v-107c1-27-5-49-29-50C55-147 81-57 75 0H25l-1-190h47c2 12-1 28 3 38 10-53 101-56 108 0 13-22 24-43 59-42 82 1 51 116 57 194h-49v-107c-1-25-5-48-29-50" id="A"/><path fill="#333" d="M137-138c1-29-70-34-71-4 15 46 118 7 119 86 1 83-164 76-172 9l43-7c4 19 20 25 44 25 33 8 57-30 24-41C81-84 22-81 20-136c-2-80 154-74 161-7" id="B"/><path fill="#333" d="M110-194c64 0 96 36 96 99 0 64-35 99-97 99-61 0-95-36-95-99 0-62 34-99 96-99zm-1 164c35 0 45-28 45-65 0-40-10-65-43-65-34 0-45 26-45 65 0 36 10 65 43 65" id="C"/><g id="d"><use transform="matrix(0.05,0,0,0.05,0,0)" xlink:href="#x"/><use transform="matrix(0.05,0,0,0.05,12,0)" xlink:href="#y"/><use transform="matrix(0.05,0,0,0.05,22.950000000000003,0)" xlink:href="#z"/><use transform="matrix(0.05,0,0,0.05,33.900000000000006,0)" xlink:href="#A"/><use transform="matrix(0.05,0,0,0.05,49.900000000000006,0)" xlink:href="#t"/><use transform="matrix(0.05,0,0,0.05,54.900000000000006,0)" xlink:href="#B"/><use transform="matrix(0.05,0,0,0.05,64.9,0)" xlink:href="#B"/><use transform="matrix(0.05,0,0,0.05,74.9,0)" xlink:href="#t"/><use transform="matrix(0.05,0,0,0.05,79.9,0)" xlink:href="#C"/><use transform="matrix(0.05,0,0,0.05,90.85000000000001,0)" xlink:href="#r"/></g><filter id="a" filterUnits="objectBoundingBox" x="-.06" y="-.07" width="1.13" height="1.33"><feOffset result="offOut" in="SourceAlpha" dy="6"/><feGaussianBlur result="blurOut" in="offOut" stdDeviation="5"/><feColorMatrix result="colorOut" in="blurOut" values="0 0 0 0 0 0 0 0 0 0 0 0 0 0 0 0 0 0 0.5019607843137255 0"/><feBlend in="SourceGraphic" in2="colorOut"/></filter><path fill="#333" d="M275 0h-61l-44-196L126 0H64L0-248h53L97-49l45-199h58l43 199 44-199h52" id="D"/><path fill="#333" d="M135-150c-39-12-60 13-60 57V0H25l-1-190h47c2 13-1 29 3 40 6-28 27-53 61-41v41" id="E"/><path fill="#333" d="M147 0L96-86 75-71V0H25v-261h50v150l67-79h53l-66 74L201 0h-54" id="F"/><path fill="#333" d="M121-226c-27-7-43 5-38 36h38v33H83V0H34v-157H6v-33h28c-9-59 32-81 87-68v32" id="G"/><path fill="#333" d="M25 0v-261h50V0H25" id="H"/><path fill="#333" d="M231 0h-52l-39-155L100 0H48L-1-190h46L77-45c9-52 24-97 36-145h53l37 145 32-145h46" id="I"/><g id="e"><use transform="matrix(0.05,0,0,0.05,0,0)" xlink:href="#D"/><use transform="matrix(0.05,0,0,0.05,16.599999999999998,0)" xlink:href="#C"/><use transform="matrix(0.05,0,0,0.05,27.549999999999997,0)" xlink:href="#E"/><use transform="matrix(0.05,0,0,0.05,34.55,0)" xlink:href="#F"/><use transform="matrix(0.05,0,0,0.05,44.55,0)" xlink:href="#G"/><use transform="matrix(0.05,0,0,0.05,50.5,0)" xlink:href="#H"/><use transform="matrix(0.05,0,0,0.05,55.5,0)" xlink:href="#C"/><use transform="matrix(0.05,0,0,0.05,66.45,0)" xlink:href="#I"/></g><path fill="#333" d="M190-63c-7 42-38 67-86 67-59 0-84-38-90-98-12-110 154-137 174-36l-49 2c-2-19-15-32-35-32-30 0-35 28-38 64-6 74 65 87 74 30" id="J"/><g id="f"><use transform="matrix(0.05,0,0,0.05,0,0)" xlink:href="#v"/><use transform="matrix(0.05,0,0,0.05,12,0)" xlink:href="#E"/><use transform="matrix(0.05,0,0,0.05,19,0)" xlink:href="#C"/><use transform="matrix(0.05,0,0,0.05,29.950000000000003,0)" xlink:href="#J"/><use transform="matrix(0.05,0,0,0.05,39.95,0)" xlink:href="#w"/><use transform="matrix(0.05,0,0,0.05,49.95,0)" xlink:href="#B"/><use transform="matrix(0.05,0,0,0.05,59.95,0)" xlink:href="#B"/></g><path fill="#333" d="M67-125c0 53 21 87 73 88 37 1 54-22 65-47l45 17C233-25 199 4 140 4 58 4 20-42 15-125 8-235 124-281 211-232c18 10 29 29 36 50l-46 12c-8-25-30-41-62-41-52 0-71 34-72 86" id="K"/><path fill="#333" d="M128 0H69L1-190h53L99-40l48-150h52" id="L"/><g id="g"><use transform="matrix(0.05,0,0,0.05,0,0)" xlink:href="#K"/><use transform="matrix(0.05,0,0,0.05,12.950000000000001,0)" xlink:href="#C"/><use transform="matrix(0.05,0,0,0.05,23.900000000000002,0)" xlink:href="#r"/><use transform="matrix(0.05,0,0,0.05,34.85,0)" xlink:href="#L"/><use transform="matrix(0.05,0,0,0.05,44.85,0)" xlink:href="#w"/><use transform="matrix(0.05,0,0,0.05,54.85,0)" xlink:href="#E"/><use transform="matrix(0.05,0,0,0.05,61.85,0)" xlink:href="#B"/><use transform="matrix(0.05,0,0,0.05,71.85,0)" xlink:href="#t"/><use transform="matrix(0.05,0,0,0.05,76.85,0)" xlink:href="#C"/><use transform="matrix(0.05,0,0,0.05,87.8,0)" xlink:href="#r"/></g><path fill="#333" d="M24 0v-248h195v40H76v63h132v40H76v65h150V0H24" id="M"/><g id="i"><use transform="matrix(0.05,0,0,0.05,0,0)" xlink:href="#M"/><use transform="matrix(0.05,0,0,0.05,12,0)" xlink:href="#A"/><use transform="matrix(0.05,0,0,0.05,28,0)" xlink:href="#q"/><use transform="matrix(0.05,0,0,0.05,38,0)" xlink:href="#t"/><use transform="matrix(0.05,0,0,0.05,43,0)" xlink:href="#H"/></g><filter id="h" filterUnits="objectBoundingBox" x="-.08" y="-.07" width="1.16" height="1.36"><feOffset result="offOut" in="SourceAlpha" dy="6"/><feGaussianBlur result="blurOut" in="offOut" stdDeviation="5"/><feColorMatrix result="colorOut" in="blurOut" values="0 0 0 0 0 0 0 0 0 0 0 0 0 0 0 0 0 0 0.5019607843137255 0"/><feBlend in="SourceGraphic" in2="colorOut"/></filter><path fill="#333" d="M175 0L67-191c6 58 2 128 3 191H24v-248h59L193-55c-6-58-2-129-3-193h46V0h-61" id="N"/><path fill="#333" d="M115-3C79 11 28 4 28-45v-112H4v-33h27l15-45h31v45h36v33H77v99c-1 23 16 31 38 25v30" id="O"/><g id="k"><use transform="matrix(0.05,0,0,0.05,0,0)" xlink:href="#N"/><use transform="matrix(0.05,0,0,0.05,12.950000000000001,0)" xlink:href="#y"/><use transform="matrix(0.05,0,0,0.05,23.900000000000002,0)" xlink:href="#E"/><use transform="matrix(0.05,0,0,0.05,30.900000000000002,0)" xlink:href="#O"/><use transform="matrix(0.05,0,0,0.05,36.85,0)" xlink:href="#y"/><use transform="matrix(0.05,0,0,0.05,47.800000000000004,0)" xlink:href="#E"/><use transform="matrix(0.05,0,0,0.05,54.800000000000004,0)" xlink:href="#t"/><use transform="matrix(0.05,0,0,0.05,59.800000000000004,0)" xlink:href="#r"/><use transform="matrix(0.05,0,0,0.05,70.75,0)" xlink:href="#u"/></g><g id="l"><use transform="matrix(0.05,0,0,0.05,0,0)" xlink:href="#D"/><use transform="matrix(0.05,0,0,0.05,16.599999999999998,0)" xlink:href="#C"/><use transform="matrix(0.05,0,0,0.05,27.549999999999997,0)" xlink:href="#E"/><use transform="matrix(0.05,0,0,0.05,34.55,0)" xlink:href="#F"/><use transform="matrix(0.05,0,0,0.05,44.55,0)" xlink:href="#G"/><use transform="matrix(0.05,0,0,0.05,50.5,0)" xlink:href="#H"/><use transform="matrix(0.05,0,0,0.05,55.5,0)" xlink:href="#C"/><use transform="matrix(0.05,0,0,0.05,66.45,0)" xlink:href="#I"/></g><path fill="#333" d="M199 0l-22-63H83L61 0H9l90-248h61L250 0h-51zm-33-102l-36-108c-10 38-24 72-36 108h72" id="P"/><use transform="matrix(0.05,0,0,0.05,0,0)" xlink:href="#P" id="m"/><filter id="j" filterUnits="objectBoundingBox" x="-.06" y="-.07" width="1.13" height="1.36"><feOffset result="offOut" in="SourceAlpha" dy="6"/><feGaussianBlur result="blurOut" in="offOut" stdDeviation="5"/><feColorMatrix result="colorOut" in="blurOut" values="0 0 0 0 0 0 0 0 0 0 0 0 0 0 0 0 0 0 0.5019607843137255 0"/><feBlend in="SourceGraphic" in2="colorOut"/></filter><path fill="#333" d="M182-130c37 4 62 22 62 59C244 23 116-4 24 0v-248c84 5 203-23 205 63 0 31-19 50-47 55zM76-148c40-3 101 13 101-30 0-44-60-28-101-31v61zm0 110c48-3 116 14 116-37 0-48-69-32-116-35v72" id="Q"/><use transform="matrix(0.05,0,0,0.05,0,0)" xlink:href="#Q" id="n"/><use transform="matrix(0.05,0,0,0.05,0,0)" xlink:href="#K" id="o"/></defs></g></svg>